<svg xmlns="http://www.w3.org/2000/svg" viewBox="0 0 320 300" width="320" height="300" aria-label="Coração limpo">
  <defs>
    <!-- degradê principal -->
    <linearGradient id="gHeart" x1="0" y1="0" x2="1" y2="1">
      <stop offset="0%"  stop-color="#ff5a7a"/>
      <stop offset="50%" stop-color="#ff1e4d"/>
      <stop offset="100%" stop-color="#c3123b"/>
    </linearGradient>
    <!-- brilho suave -->
    <radialGradient id="gGloss" cx="30%" cy="25%" r="50%">
      <stop offset="0%" stop-color="#fff" stop-opacity="0.7"/>
      <stop offset="60%" stop-color="#fff" stop-opacity="0"/>
    </radialGradient>
  </defs>

  <!-- coração -->
  <path d="
    M 160 260
    C 112 220, 60 190, 48 140
    C 40 104, 60 72, 92 64
    C 120 58, 140 72, 160 96
    C 180 72, 200 58, 228 64
    C 260 72, 280 104, 272 140
    C 260 190, 208 220, 160 260 Z"
    fill="url(#gHeart)" stroke="#8a1834" stroke-width="4"/>

  <!-- brilho -->
  <path d="
    M 160 100
    C 140 70, 100 70, 80 90
    C 66 104, 68 128, 88 138
    C 108 148, 138 130, 160 120 Z"
    fill="url(#gGloss)"/>
</svg>
